<svg width="520" height="520" viewBox="0 0 520 520" fill="none" xmlns="http://www.w3.org/2000/svg">
<g filter="url(#filter0_d)">
<path d="M260 512C401.385 512 516 397.385 516 256C516 114.615 401.385 0 260 0C118.615 0 4 114.615 4 256C4 397.385 118.615 512 260 512Z" fill="#2D9587"/>
<path d="M387.021 33.691C413.519 74.009 428.95 122.249 428.95 174.101C428.95 315.486 314.335 430.101 172.95 430.101C126.724 430.101 83.362 417.844 45.929 396.41C91.684 466.027 170.467 512 260 512C401.385 512 516 397.385 516 256C516 160.841 464.077 77.814 387.021 33.691V33.691Z" fill="#00AB94"/>
<path d="M260 478.915C383.113 478.915 482.915 379.113 482.915 256C482.915 132.887 383.113 33.085 260 33.085C136.887 33.085 37.085 132.887 37.085 256C37.085 379.113 136.887 478.915 260 478.915Z" fill="#02C6AB"/>
<path d="M262.912 187.586L307.658 232.34C309.267 233.95 311.877 233.95 313.486 232.34L337.071 208.75C338.68 207.141 338.68 204.532 337.071 202.923L262.911 128.746C261.302 127.136 258.692 127.136 257.083 128.746L182.95 202.896C181.341 204.505 181.341 207.114 182.95 208.723L206.535 232.313C208.144 233.923 210.754 233.923 212.363 232.313L257.083 187.586C258.694 185.976 261.303 185.976 262.912 187.586V187.586Z" fill="#2D9587"/>
<path d="M156.354 229.492L132.768 253.083C131.159 254.692 131.159 257.301 132.768 258.91L156.352 282.5C157.961 284.11 160.571 284.11 162.18 282.5L185.766 258.909C187.375 257.3 187.375 254.691 185.766 253.082L162.181 229.493C160.573 227.883 157.964 227.883 156.354 229.492Z" fill="#2D9587"/>
<path d="M262.912 383.255L337.085 309.065C338.694 307.455 338.694 304.845 337.083 303.236L313.485 279.659C311.875 278.051 309.267 278.052 307.658 279.661L262.912 324.414C261.303 326.024 258.693 326.024 257.084 324.414L212.36 279.683C210.752 278.075 208.146 278.073 206.536 279.679L182.916 303.238C181.303 304.847 181.301 307.458 182.912 309.069L257.084 383.254C258.694 384.864 261.303 384.864 262.912 383.255Z" fill="#2D9587"/>
<path d="M357.819 229.506L334.233 253.097C332.624 254.706 332.624 257.315 334.233 258.924L357.818 282.514C359.427 284.124 362.037 284.124 363.646 282.514L387.232 258.923C388.841 257.314 388.841 254.705 387.232 253.096L363.647 229.506C362.037 227.897 359.428 227.897 357.819 229.506Z" fill="#2D9587"/>
<path d="M286.946 253.086L262.913 229.048C261.304 227.438 258.694 227.438 257.085 229.048L233.052 253.086C231.443 254.695 231.443 257.304 233.052 258.913L257.085 282.953C258.694 284.563 261.304 284.563 262.913 282.953L286.946 258.913C288.555 257.303 288.555 254.695 286.946 253.086Z" fill="#2D9587"/>
<path d="M417.533 98.286C424.951 122.244 428.95 147.705 428.95 174.101C428.95 315.486 314.335 430.101 172.95 430.101C152.002 430.101 131.648 427.566 112.161 422.82C151.507 457.715 203.274 478.916 260.001 478.916C383.114 478.916 482.916 379.113 482.916 256.001C482.915 194.398 457.926 138.632 417.533 98.286V98.286Z" fill="#278C7F"/>
</g>
<defs>
<filter id="filter0_d" x="0" y="0" width="520" height="520" filterUnits="userSpaceOnUse" color-interpolation-filters="sRGB">
<feFlood flood-opacity="0" result="BackgroundImageFix"/>
<feColorMatrix in="SourceAlpha" type="matrix" values="0 0 0 0 0 0 0 0 0 0 0 0 0 0 0 0 0 0 127 0" result="hardAlpha"/>
<feOffset dy="4"/>
<feGaussianBlur stdDeviation="2"/>
<feComposite in2="hardAlpha" operator="out"/>
<feColorMatrix type="matrix" values="0 0 0 0 0 0 0 0 0 0 0 0 0 0 0 0 0 0 0.25 0"/>
<feBlend mode="normal" in2="BackgroundImageFix" result="effect1_dropShadow"/>
<feBlend mode="normal" in="SourceGraphic" in2="effect1_dropShadow" result="shape"/>
</filter>
</defs>
</svg>
