<svg width="726" height="726" viewBox="0 0 726 726" fill="none" xmlns="http://www.w3.org/2000/svg">
<g clip-path="url(#clip0)">
<path d="M317.999 363C317.999 305.1 270.899 258 212.999 258H149.387C91.4873 258 44.3874 305.1 44.3874 363C44.3874 420.9 91.4873 468 149.387 468H212.999C270.899 468 317.999 420.9 317.999 363ZM149.387 408.001C124.487 407.998 104.384 387.901 104.386 363C104.384 338.099 124.489 317.999 149.387 317.999H212.999C237.9 318.002 257.997 338.099 258 363C258.003 387.901 237.9 407.998 212.999 408.001H149.387Z" fill="#61D7A8"/>
<path d="M212.999 468H149.387C91.4873 468 44.3874 420.9 44.3874 363H104.386C104.384 387.901 124.487 407.998 149.387 408.001H212.999C237.9 407.998 257.997 387.901 258 363H317.999C317.999 420.9 270.899 468 212.999 468V468Z" fill="#00AB94"/>
<path d="M681.612 363C681.612 305.1 634.512 258 576.612 258H513C455.1 258 408 305.1 408 363C408 420.9 455.1 468 513 468H576.612C634.512 468 681.612 420.9 681.612 363V363ZM513 408.001C488.102 408.001 468.002 387.901 468 363C467.997 338.099 488.102 317.999 513 317.999H576.612C601.516 317.999 621.613 338.097 621.613 363C621.616 387.901 601.516 408.001 576.612 408.001H513Z" fill="#61D7A8"/>
<path d="M576.612 468H513C455.1 468 408 420.9 408 363H468C468 387.898 488.102 408.001 513 408.001H576.612C601.516 408.001 621.616 387.901 621.613 363H681.612C681.612 420.9 634.512 468 576.612 468V468Z" fill="#00AB94"/>
<path d="M527.999 363C528.001 338.099 507.901 317.999 482.998 317.999H377.998L378.001 407.998H483.001C507.901 408.001 528.001 387.901 527.999 363Z" fill="#FFD400"/>
<path d="M483.001 407.998H378.001L377.998 363H527.999C528.001 387.901 507.901 408.001 483.001 407.998Z" fill="#FF9F00"/>
<path d="M348.001 317.999H243.002C218.101 318.002 198.001 338.102 198.001 363C197.998 387.901 218.104 408.001 243.002 408.001H348.001V317.999Z" fill="#FFD400"/>
<path d="M348.001 363L347.999 407.998H242.999C218.101 407.998 197.998 387.901 198.001 363H348.001Z" fill="#FF9F00"/>
</g>
<defs>
<clipPath id="clip0">
<rect width="512" height="512" fill="white" transform="translate(363 0.961426) rotate(45)"/>
</clipPath>
</defs>
</svg>
