<svg width="512" height="512" viewBox="0 0 512 550" fill="none" xmlns="http://www.w3.org/2000/svg">
<path d="M336 151.913V115.781L382.313 23.156C384.79 18.195 384.524 12.304 381.61 7.586C378.695 2.875 373.547 0 368 0H304C299.758 0 295.687 1.688 292.687 4.688L272 25.375L251.313 4.688C248.313 1.688 244.243 0 240 0H144C138.453 0 133.305 2.875 130.391 7.586C127.477 12.305 127.211 18.195 129.688 23.156L176 115.781V151.913C104.824 204.277 48 309.69 48 391.648C48 512 153.742 512 256 512C358.258 512 464 512 464 391.648C464 309.69 407.176 204.277 336 151.913ZM208 128H304V144H208V128ZM233.375 32L260.688 59.313C266.938 65.563 277.063 65.563 283.313 59.313L310.625 32H342.109L310.109 96H201.891L169.891 32H233.375ZM256 480C130.937 480 80 472.008 80 391.648C80 326.914 126.844 226 197.008 176H314.992C385.156 226 432 326.914 432 391.648C432 472.008 381.063 480 256 480Z" fill="white"/>
<path d="M200.155 308.277C197.635 342.75 226.252 371.366 260.725 368.845C288.487 366.815 310.817 344.485 312.845 316.723C315.365 282.25 286.748 253.634 252.275 256.155C224.513 258.184 202.183 280.515 200.155 308.277ZM273.782 321.518L277.297 343.064L259.274 333.102C258.411 332.624 257.455 332.386 256.499 332.386C255.543 332.386 254.587 332.624 253.724 333.102L235.701 343.064L239.216 321.518C239.509 319.721 238.931 317.891 237.66 316.588L222.512 301.062L243.185 297.904C245.076 297.615 246.699 296.402 247.511 294.671L256.5 275.523L265.488 294.671C266.3 296.403 267.923 297.616 269.814 297.905L290.487 301.063L275.339 316.589C274.067 317.891 273.49 319.721 273.782 321.518V321.518ZM247.144 268.456L238.428 287.026L217.383 290.24C223.656 279.26 234.41 271.158 247.144 268.456V268.456ZM211.472 312.5C211.472 310.494 211.617 308.522 211.873 306.584L227.428 322.528L223.99 343.606C216.245 335.515 211.472 324.558 211.472 312.5V312.5ZM239.382 354.139L256.5 344.676L273.618 354.139C268.337 356.318 262.558 357.528 256.5 357.528C250.441 357.528 244.663 356.318 239.382 354.139ZM289.009 343.606L285.571 322.528L301.127 306.584C301.383 308.522 301.528 310.494 301.528 312.5C301.528 324.558 296.754 335.515 289.009 343.606V343.606ZM295.617 290.241L274.572 287.026L265.856 268.456C278.589 271.158 289.343 279.26 295.617 290.241Z" fill="white"/>
</svg>
