<svg width="512" height="512" viewBox="0 0 512 550" fill="none" xmlns="http://www.w3.org/2000/svg">
<g clip-path="url(#clip0)">
<path d="M390.051 476.625H121.949C97.3236 476.625 77.2655 456.589 77.2655 431.942V223.418C77.2655 198.771 97.3236 178.735 121.949 178.735H390.051C414.676 178.735 434.735 198.771 434.735 223.418V431.942C434.735 456.589 414.676 476.625 390.051 476.625ZM121.949 208.524C113.745 208.524 107.055 215.196 107.055 223.418V431.942C107.055 440.164 113.745 446.836 121.949 446.836H390.051C398.255 446.836 404.945 440.164 404.945 431.942V223.418C404.945 215.196 398.255 208.524 390.051 208.524H121.949Z" fill="white"/>
<path d="M360.262 208.524C352.04 208.524 345.367 201.851 345.367 193.629V119.156C345.367 69.8836 305.273 29.7891 256 29.7891C206.727 29.7891 166.633 69.8836 166.633 119.156V193.629C166.633 201.851 159.96 208.524 151.738 208.524C143.516 208.524 136.844 201.851 136.844 193.629V119.156C136.844 53.44 190.284 0 256 0C321.716 0 375.156 53.44 375.156 119.156V193.629C375.156 201.851 368.484 208.524 360.262 208.524Z" fill="white"/>
</g>
<defs>
<clipPath id="clip0">
<rect width="512" height="512" fill="white"/>
</clipPath>
</defs>
</svg>
