<svg width="726" height="726" viewBox="0 0 726 726" fill="none" xmlns="http://www.w3.org/2000/svg">
<g clip-path="url(#clip0)">
<path d="M363.002 483.906L449.408 466.204L423.907 423.002C432.907 405.001 438.007 384.598 438.007 362.997C438.007 341.695 433.208 321.294 423.907 302.993H423.006L382.804 259.49L363.002 242.088C344.701 232.788 324.3 227.988 302.998 227.988L191.776 227.988C117.371 227.988 56.9076 288.451 56.9076 362.856C56.9076 439.36 119.312 497.866 191.917 497.865L302.998 498.007C324.601 498.007 345.002 492.908 363.002 483.906ZM191.918 422.859C158.315 422.859 131.914 395.559 131.914 362.855C131.914 329.853 158.916 302.851 191.918 302.851L302.098 302.992L302.399 362.996L302.999 423.001L191.918 422.859Z" fill="#61D7A8"/>
<path d="M302.999 498.006L191.918 497.865C119.313 497.865 56.909 439.36 56.909 362.856L131.914 362.855C131.914 395.559 158.315 422.859 191.918 422.859L302.998 423.002L302.4 362.997H438.008C438.008 384.598 432.909 405.001 423.908 423.002L449.409 466.204L363.004 483.906C345.002 492.908 324.601 498.006 302.999 498.006Z" fill="#00AB94"/>
<path d="M669.096 363.138C669.096 288.733 608.792 228.128 534.087 228.129L423.006 227.987C401.405 227.987 381.004 233.087 363.001 242.088C336.599 255.289 315.299 276.59 302.098 302.993C293.098 320.993 287.996 341.396 287.996 362.997C287.996 384 292.797 404.4 302.098 423.002L302.997 423.002C336.001 423.002 363.001 395.999 363.001 362.997C363.001 329.995 390.004 302.993 423.006 302.993L534.087 303.134C550.289 303.134 564.989 309.435 576.391 320.837C576.989 320.837 579.39 323.536 579.691 324.437C587.792 332.536 594.092 347.536 594.091 363.139C594.091 396.141 567.09 423.143 534.087 423.143L423.908 423.002C410.707 449.404 389.405 470.706 363.003 483.907C381.303 492.907 402.005 498.008 423.007 498.007L534.088 498.149C608.493 498.148 669.096 437.542 669.096 363.138Z" fill="#FFD400"/>
<path d="M302.999 423.001L302.1 423.001C292.799 404.4 287.997 383.998 287.998 362.996L363.004 362.996C363.003 395.999 336.002 423.002 302.999 423.001Z" fill="#FF9F00"/>
<path d="M534.086 498.148L423.005 498.007C402.003 498.007 381.301 492.907 363.001 483.906C389.403 470.705 410.705 449.404 423.906 423.001L534.085 423.142C567.088 423.142 594.089 396.14 594.089 363.138L669.095 363.138C669.096 437.543 608.493 498.148 534.086 498.148Z" fill="#FF9F00"/>
</g>
<defs>
<clipPath id="clip0">
<rect width="512" height="512" fill="white" transform="translate(363 0.961304) rotate(45)"/>
</clipPath>
</defs>
</svg>
