<?xml version="1.0" standalone="no"?>
<!DOCTYPE svg PUBLIC "-//W3C//DTD SVG 20010904//EN"
 "http://www.w3.org/TR/2001/REC-SVG-20010904/DTD/svg10.dtd">
<svg version="1.0" xmlns="http://www.w3.org/2000/svg"
 width="1280.000000pt" height="648.000000pt" viewBox="0 0 1280.000000 648.000000"
 preserveAspectRatio="xMidYMid meet">
<g transform="translate(0.000000,648.000000) scale(0.100000,-0.100000)"
fill="#000000" stroke="none">
<path d="M3892 6458 c8 -13 104 -170 212 -351 l198 -327 430 2 431 3 184 305
c102 168 196 324 210 348 l25 42 -24 0 c-20 0 -52 -48 -222 -330 l-199 -330
-405 2 -404 3 -200 325 c-172 281 -202 325 -225 328 -25 4 -26 3 -11 -20z"/>
<path d="M5690 6470 c0 -6 -18 -39 -40 -74 -22 -35 -40 -68 -40 -75 0 -6 71
-126 157 -266 l158 -255 320 2 319 3 152 250 c84 138 153 256 153 263 1 7 -18
46 -41 87 l-43 74 -547 1 c-368 0 -548 -3 -548 -10z"/>
<path d="M7402 6457 c27 -49 711 -1174 734 -1207 52 -74 41 -70 185 -70 120 0
131 -1 127 -17 -3 -10 -53 -97 -112 -192 -58 -96 -106 -182 -106 -190 0 -9
135 -236 298 -506 l298 -490 615 -3 615 -2 297 488 c163 269 299 495 302 504
4 10 -95 182 -265 463 -160 263 -270 454 -267 464 2 9 108 187 235 396 l231
380 -62 3 c-46 2 -64 -1 -72 -12 -5 -8 -100 -164 -209 -346 l-199 -330 -607 0
-607 0 -150 -247 -151 -248 -143 2 c-128 1 -145 3 -159 20 -8 11 -170 277
-360 591 l-345 571 -68 1 -68 0 13 -23z m2584 -742 c5 -13 -196 -364 -234
-407 -14 -17 -54 -18 -568 -18 -360 0 -555 4 -559 10 -8 12 230 406 253 420
11 6 229 10 560 10 465 0 543 -2 548 -15z m356 -519 c136 -225 248 -412 248
-415 0 -3 -128 -215 -283 -471 l-282 -465 -579 0 -579 0 -279 459 c-153 253
-278 468 -278 478 0 9 51 102 114 205 l113 188 629 5 c346 3 634 8 640 12 5 4
66 99 135 213 81 134 129 204 139 203 8 -2 126 -187 262 -412z"/>
<path d="M2787 6313 c-96 -153 -491 -811 -494 -823 -3 -13 338 -590 483 -817
l34 -53 524 0 524 0 261 431 c221 364 260 433 251 450 -30 54 -494 816 -508
832 -14 16 -52 17 -533 17 l-519 0 -23 -37z m1040 -21 c9 -6 444 -718 482
-789 10 -20 -13 -62 -232 -425 l-242 -403 -499 0 -499 0 -224 370 c-123 204
-233 386 -243 406 l-19 36 241 399 c132 220 246 402 252 406 6 4 227 8 491 8
264 0 485 -4 492 -8z"/>
<path d="M253 5843 l-253 -3 0 -50 0 -50 435 0 435 0 35 -55 c19 -30 35 -58
35 -63 0 -15 -26 -22 -78 -22 l-47 0 -297 -487 c-281 -463 -295 -489 -283
-513 36 -69 578 -955 588 -962 7 -4 67 -8 134 -8 67 0 124 -3 126 -8 5 -7
-173 -311 -202 -346 -12 -14 -58 -16 -447 -16 l-434 0 0 -55 0 -55 463 0 c429
0 465 1 479 18 8 9 70 109 138 222 68 113 130 213 138 223 14 16 46 17 404 17
l388 0 34 53 c57 89 557 918 562 931 3 7 -129 232 -292 499 l-297 487 -454 0
c-265 0 -462 4 -472 9 -10 6 -49 62 -87 125 l-69 116 -215 -2 c-118 -2 -329
-4 -467 -5z"/>
<path d="M11458 5589 c-33 -44 -368 -595 -368 -604 0 -4 -20 -40 -45 -80 l-46
-73 227 -374 c125 -205 234 -381 242 -390 14 -17 50 -18 483 -18 l467 0 178
293 c97 160 183 299 191 308 10 12 13 56 13 176 l0 161 -73 119 c-40 65 -126
205 -191 311 l-118 192 -206 0 c-114 0 -324 3 -468 7 l-261 6 -25 -34z m1114
-404 c110 -181 203 -337 205 -346 2 -9 -88 -168 -202 -357 l-207 -342 -426 2
-426 3 -203 335 c-111 184 -203 342 -203 351 0 9 24 54 54 100 29 46 118 190
196 319 79 129 150 243 158 253 14 16 45 17 435 15 l419 -3 200 -330z"/>
<path d="M5750 5179 c-83 -139 -154 -258 -157 -264 -2 -7 87 -162 198 -345
112 -183 205 -328 207 -321 2 7 -85 160 -193 341 l-197 329 151 252 c84 138
150 254 147 256 -2 2 -72 -109 -156 -248z"/>
<path d="M7365 4923 l0 -28 -389 -5 -389 -5 -207 -340 c-114 -187 -213 -346
-220 -354 -9 -9 -30 -12 -71 -9 -32 2 -56 1 -53 -4 3 -4 24 -8 48 -8 23 0 46
-3 49 -6 8 -9 5 -15 -146 -262 -71 -117 -127 -218 -124 -225 3 -6 167 -277
365 -602 l360 -590 238 -5 c145 -3 239 -9 240 -15 2 -5 -9 -28 -24 -50 l-28
-40 -281 -3 -280 -2 -297 -489 c-163 -269 -296 -493 -296 -497 0 -4 20 -40 45
-80 25 -39 45 -78 45 -85 0 -7 -27 -59 -61 -115 -56 -96 -84 -132 -93 -123 -2
2 -57 90 -121 194 -65 105 -123 193 -129 197 -6 4 -203 8 -438 8 -356 0 -429
-2 -441 -14 -20 -21 -437 -701 -437 -714 0 -6 86 -151 190 -322 105 -171 190
-316 190 -321 0 -5 200 -9 494 -9 l494 0 22 35 c12 19 26 35 31 35 5 0 19 -16
31 -35 15 -23 31 -35 46 -35 l24 0 -23 38 c-13 20 -29 47 -37 59 -8 13 -11 30
-8 39 4 9 71 123 151 253 79 130 147 244 150 253 5 11 -17 56 -63 130 -38 62
-74 123 -80 134 -10 19 -3 37 54 130 77 130 80 133 98 114 8 -8 111 -174 230
-368 118 -194 220 -360 227 -368 10 -12 100 -14 585 -14 425 0 574 -3 574 -11
0 -7 -47 -89 -105 -184 -126 -206 -125 -205 -92 -205 22 0 40 25 143 192 76
124 119 204 119 223 2 33 259 466 298 500 13 12 22 26 20 32 -2 6 53 104 123
219 70 115 127 213 127 219 0 10 -532 895 -575 958 l-19 27 -295 0 c-332 0
-327 -1 -280 70 l26 40 469 0 c433 0 469 1 483 18 8 9 144 231 303 492 158
261 295 483 303 493 14 16 39 17 321 15 l306 -3 22 -41 23 -41 -200 -329
c-110 -181 -200 -334 -200 -339 0 -6 123 -213 273 -461 l273 -449 175 -5 c96
-3 347 -3 557 0 l384 5 192 315 191 315 401 3 c345 2 404 4 414 17 7 9 115
183 240 388 192 313 226 375 217 392 -19 38 -441 730 -455 748 -14 16 -47 17
-485 15 l-469 -3 -111 -182 -111 -183 -570 -2 -569 -3 -61 -100 c-34 -55 -68
-101 -76 -102 -8 -2 -24 12 -35 30 l-20 32 -290 3 c-159 1 -293 6 -298 11 -5
5 11 39 34 77 23 38 42 74 42 80 0 6 -163 279 -364 607 l-364 597 -322 0 -322
0 -16 30 c-19 37 -21 37 -20 3z m-105 -187 c0 -15 -291 -507 -318 -538 -14
-16 -41 -18 -308 -18 -186 0 -295 4 -299 10 -3 6 69 134 161 285 l167 275 299
0 c252 0 298 -2 298 -14z m1020 -502 c173 -284 316 -525 318 -535 2 -11 -13
-47 -34 -82 -64 -108 -14 -97 -459 -97 l-392 0 -253 -417 c-139 -230 -262
-430 -272 -445 l-19 -28 -250 0 -249 0 -43 68 c-143 225 -597 982 -597 995 0
9 62 119 139 244 l139 228 318 5 319 5 174 288 175 287 336 0 336 0 314 -516z
m3452 -296 c9 -7 107 -163 217 -347 178 -295 199 -336 189 -355 -43 -81 -394
-653 -406 -663 -24 -20 -671 -18 -678 1 -3 7 16 48 41 90 26 42 45 82 42 89
-2 7 -111 187 -241 401 -130 214 -236 397 -236 406 0 14 193 342 222 378 8 9
105 12 422 12 315 0 416 -3 428 -12z m-1188 -344 c9 -3 16 -11 16 -16 0 -5
-43 -79 -95 -164 -52 -85 -95 -159 -95 -164 0 -5 105 -181 234 -392 221 -362
235 -383 265 -386 17 -2 31 -9 31 -16 0 -13 -312 -530 -338 -558 -14 -16 -43
-18 -343 -18 -208 0 -330 4 -334 10 -4 7 -12 7 -25 0 -21 -11 -329 -14 -346
-2 -6 4 -125 193 -263 421 -180 295 -251 421 -248 436 7 39 351 596 365 593 8
-2 161 -245 341 -540 296 -484 370 -604 358 -573 -2 6 -153 256 -335 556 -182
301 -337 558 -343 572 -10 23 -6 35 46 119 32 51 64 101 73 111 14 16 52 17
518 17 276 0 509 -3 518 -6z m-2069 -103 c4 -8 -335 -577 -481 -808 l-34 -53
-375 0 c-341 0 -375 1 -375 16 0 20 486 823 508 842 19 15 747 18 757 3z
m2371 -368 c120 -197 219 -367 222 -378 5 -30 -86 -174 -115 -181 -57 -15 -63
-8 -266 328 -107 178 -200 333 -206 345 -10 20 -4 36 55 133 37 60 73 110 80
110 6 0 110 -161 230 -357z"/>
<path d="M2481 4050 c-144 -237 -261 -433 -261 -438 0 -4 116 -198 258 -432
l258 -425 529 0 529 0 258 425 c142 234 258 428 258 432 0 4 -117 201 -261
438 l-261 430 -523 0 -523 0 -261 -430z m1281 368 c14 -12 459 -737 480 -783
8 -18 -28 -83 -228 -416 -130 -217 -244 -400 -252 -406 -12 -10 -126 -13 -493
-13 -440 0 -478 1 -497 18 -26 22 -482 775 -482 795 0 15 449 766 478 800 14
16 50 17 497 17 370 0 485 -3 497 -12z"/>
<path d="M4180 3127 c-167 -276 -304 -509 -304 -517 0 -9 137 -241 304 -517
205 -337 312 -504 325 -507 26 -7 1184 -7 1210 0 13 4 87 116 215 327 107 177
246 406 309 509 l113 188 -292 482 c-162 266 -302 495 -312 511 l-19 27 -622
0 -622 -1 -305 -502z m1513 438 c15 -14 564 -916 574 -941 5 -14 -560 -953
-581 -966 -6 -4 -268 -8 -582 -8 -531 0 -572 1 -586 18 -13 14 -532 865 -565
927 -8 14 -8 26 2 46 27 52 547 904 562 922 15 16 56 17 589 17 489 0 575 -2
587 -15z"/>
<path d="M1416 3374 c-5 -14 -4 -15 9 -4 17 14 19 20 6 20 -5 0 -12 -7 -15
-16z"/>
<path d="M1390 3330 c-6 -11 -8 -20 -6 -20 3 0 10 9 16 20 6 11 8 20 6 20 -3
0 -10 -9 -16 -20z"/>
<path d="M1360 3280 c-6 -11 -8 -20 -6 -20 3 0 10 9 16 20 6 11 8 20 6 20 -3
0 -10 -9 -16 -20z"/>
<path d="M1187 2995 l-156 -255 17 -38 c9 -20 97 -169 195 -330 l179 -292 408
0 407 0 161 271 c144 241 192 331 166 306 -5 -5 -83 -131 -174 -280 l-166
-272 -394 0 -395 0 -152 250 c-83 138 -170 279 -192 314 -23 35 -41 68 -41 74
0 8 215 370 288 485 8 12 12 22 9 22 -3 0 -75 -115 -160 -255z"/>
<path d="M11148 2283 c-8 -10 -86 -134 -173 -277 -133 -219 -156 -262 -147
-280 15 -32 302 -499 320 -518 14 -17 43 -18 347 -18 l332 0 167 276 168 276
-168 279 -167 279 -332 0 c-304 0 -333 -1 -347 -17z"/>
<path d="M1362 1703 c-35 -51 -392 -642 -392 -650 0 -4 91 -160 202 -345 l203
-338 420 0 420 0 208 340 c194 317 207 342 195 364 -7 13 -101 166 -208 340
l-195 316 -417 0 -417 0 -19 -27z"/>
<path d="M0 585 l0 -585 573 0 572 0 52 90 c29 48 53 95 53 102 0 7 -132 229
-293 493 l-292 480 -333 3 -332 2 0 -585z"/>
<path d="M11342 923 c-426 -705 -552 -914 -552 -918 0 -3 11 -5 23 -5 15 0 28
9 34 23 20 43 566 932 577 939 6 4 274 7 596 5 l584 -2 96 -157 95 -157 3 56
c2 31 -1 59 -6 62 -5 3 -37 53 -72 111 -35 58 -70 113 -78 123 -14 16 -57 17
-628 17 l-613 0 -59 -97z"/>
<path d="M2449 498 c-111 -183 -224 -368 -251 -411 -26 -43 -48 -80 -48 -83 0
-2 10 -4 23 -4 18 1 59 63 247 372 124 204 233 382 243 395 l18 23 584 0 584
0 18 -24 c10 -13 119 -190 243 -394 208 -343 227 -371 253 -372 15 0 27 3 26
8 0 4 -112 189 -248 412 l-248 405 -620 3 -621 2 -203 -332z"/>
</g>
</svg>
